#!OML:ASF C:\ViconDB\ViconDB\414\Spring2016\041811\Spring2016.ASF
:FULLY-SPECIFIED
:DEGREES
277
root 10.452 16.4063 14.3754 -137.053 -55.702 141.292
lowerback 18.2094 2.33593 9.12115
upperback 2.26822 4.82466 12.1478
thorax -8.08609 1.81642 7.10625
lowerneck 5.4082 -15.7954 -27.5931
upperneck 5.11621 -29.4963 37.1131
head 11.6354 -14.7437 13.8225
rclavicle 0 9.54166e-015
rhumerus 0.637381 -26.5679 -19.0987
rradius 53.736
rwrist 14.5372
rhand -48.7648 -23.5944
rfingers 7.12502
rthumb -21.4032 -52.4322
lclavicle 0 9.54166e-015
lhumerus -0.524189 31.9431 -9.71608
lradius 45.9451
lwrist 4.64838
lhand -45.9734 33.2107
lfingers 7.12502
lthumb -18.7201 62.3299
rfemur 203.279 54.0026 -155.646
rtibia 50.0337
rfoot 0.716418 -69.8354
rtoes -27.3598
lfemur -3.02893 5.11765 -18.6782
ltibia 33.8739
lfoot -21.9525 20.2794
ltoes -28.7775
278
root 10.3695 16.4137 14.1422 -136.389 -53.8778 140.689
lowerback 18.1916 2.41617 9.2334
upperback 2.37471 4.9132 12.09
thorax -7.94504 1.8523 6.94908
lowerneck 5.16708 -15.8717 -27.4563
upperneck 5.00558 -29.4463 36.9572
head 11.548 -14.6685 13.7018
rclavicle -6.04305e-014 3.49861e-014
rhumerus 0.714424 -26.7717 -19.5348
rradius 53.6234
rwrist 14.4516
rhand -48.3307 -22.9709
rfingers 7.12502
rthumb -20.9862 -51.8555
lclavicle -6.04305e-014 3.49861e-014
lhumerus -0.0101471 32.5318 -9.507
lradius 46.0495
lwrist 4.22472
lhand -45.928 33.2373
lfingers 7.12502
lthumb -18.6764 62.3607
rfemur 201.107 52.4743 -158.255
rtibia 51.2369
rfoot 2.25501 -69.4854
rtoes -27.9311
lfemur -2.32257 5.66204 -19.1959
ltibia 33.2941
lfoot -18.8347 19.209
ltoes -29.8676
279
root 10.2924 16.4259 13.92 -135.749 -52.4795 140.155
lowerback 18.4225 2.30437 9.91906
upperback 2.31368 4.91097 12.2286
thorax -8.09054 1.80811 6.72997
lowerneck 5.0643 -15.8278 -27.8861
upperneck 4.96209 -29.352 36.901
head 11.5781 -14.6127 13.7637
rclavicle 6.36111e-015 -1.01778e-013
rhumerus 0.814748 -26.4836 -19.5997
rradius 53.704
rwrist 14.3002
rhand -48.0527 -22.7825
rfingers 7.12502
rthumb -20.7191 -51.6965
lclavicle 6.36111e-015 -1.01778e-013
lhumerus -0.0547691 32.6227 -9.41017
lradius 46.2012
lwrist 4.34596
lhand -46.2318 32.3405
lfingers 7.12502
lthumb -18.9687 61.4356
rfemur 199.174 51.1845 -160.368
rtibia 52.5118
rfoot 4.27635 -70.1709
rtoes -28.4277
lfemur -1.88098 5.66561 -19.3469
ltibia 32.7821
lfoot -15.2562 18.0023
ltoes -31.3486
280
root 10.2192 16.4257 13.6892 -134.992 -50.7986 139.731
lowerback 18.5147 2.3072 10.4846
upperback 2.28466 5.0174 12.2272
thorax -8.12487 1.82673 6.38714
lowerneck 4.83851 -15.8569 -27.9436
upperneck 4.80685 -29.2076 36.7483
head 11.4746 -14.5052 13.7075
rclavicle 2.06736e-014 1.24042e-013
rhumerus 0.731734 -26.3083 -19.7403
rradius 53.7769
rwrist 14.0548
rhand -47.961 -22.838
rfingers 7.12502
rthumb -20.6309 -51.7615
lclavicle 2.06736e-014 1.24042e-013
lhumerus -0.059273 32.7722 -9.56062
lradius 46.3712
lwrist 4.42117
lhand -46.2156 31.6828
lfingers 7.12502
lthumb -18.953 60.7794
rfemur 197.639 49.6681 -162.385
rtibia 53.8071
rfoot 7.92104 -70.7349
rtoes -27.4873
lfemur -1.82653 6.05085 -19.4615
ltibia 32.3792
lfoot -10.7181 16.0258
ltoes -31.2265
281
root 10.1502 16.4363 13.4476 -134.742 -49.1569 139.896
lowerback 18.7364 2.39298 11.2697
upperback 2.38664 5.25266 12.3786
thorax -8.07834 1.89 6.06557
lowerneck 4.48031 -15.9332 -28.1203
upperneck 4.65494 -29.1055 36.6182
head 11.444 -14.4035 13.6508
rclavicle 3.49861e-014 -6.67916e-014
rhumerus 1.02628 -26.6227 -19.9346
rradius 53.5608
rwrist 14.1417
rhand -48.0726 -22.1368
rfingers 7.12502
rthumb -20.7382 -51.0487
lclavicle 3.49861e-014 -6.67916e-014
lhumerus -0.0197951 33.366 -9.61362
lradius 46.1288
lwrist 3.50808
lhand -45.818 31.6859
lfingers 7.12502
lthumb -18.5706 60.8195
rfemur 196.56 48.2152 -163.479
rtibia 54.9827
rfoot 10.2772 -71.252
rtoes -25.3575
lfemur -1.82629 6.37832 -19.1287
ltibia 31.9664
lfoot -5.48394 13.3348
ltoes -31.2701
282
root 10.0741 16.4606 13.2129 -134.071 -47.8111 139.747
lowerback 18.8416 2.24892 12.5227
upperback 2.38057 5.27516 12.3931
thorax -8.01797 1.83558 5.39141
lowerneck 4.03247 -15.9893 -28.0102
upperneck 4.51459 -28.9305 36.4703
head 11.3509 -14.2533 13.5584
rclavicle 3.33958e-014 -9.54166e-014
rhumerus 1.42663 -26.9248 -20.306
rradius 53.2191
rwrist 14.2377
rhand -48.2167 -21.8648
rfingers 7.12502
rthumb -20.8766 -50.7615
lclavicle 3.33958e-014 -9.54166e-014
lhumerus -0.059614 33.505 -10.0821
lradius 45.9355
lwrist 3.27097
lhand -45.817 31.5458
lfingers 7.12502
lthumb -18.5696 60.6795
rfemur 196.002 47.2889 -164.108
rtibia 55.9577
rfoot 11.9166 -71.568
rtoes -23.8274
lfemur -2.12839 6.36277 -18.7115
ltibia 31.3513
lfoot 0.0236369 10.7824
ltoes -29.3582
283
root 9.99301 16.5027 12.9659 -133.08 -46.3651 139.387
lowerback 18.7592 2.12415 13.571
upperback 2.33606 5.26152 12.402
thorax -7.91639 1.77819 4.84153
lowerneck 3.55508 -15.9904 -28.0605
upperneck 4.47001 -28.7342 36.3726
head 11.3348 -14.0987 13.5322
rclavicle -1.55847e-013 -1.81292e-013
rhumerus 1.95894 -27.1994 -20.6855
rradius 52.7201
rwrist 14.4307
rhand -48.0439 -22.3048
rfingers 7.12502
rthumb -20.7106 -51.2197
lclavicle -1.55847e-013 -1.81292e-013
lhumerus -0.1316 33.5545 -10.55
lradius 45.7003
lwrist 3.35516
lhand -45.9142 30.9399
lfingers 7.12502
lthumb -18.6632 60.0646
rfemur 195.94 46.6088 -164.568
rtibia 56.696
rfoot 11.6667 -71.6528
rtoes -22.928
lfemur -2.57314 6.21965 -18.4638
ltibia 30.4141
lfoot 6.35911 8.22838
ltoes -26.6048
284
root 9.92726 16.5564 12.6988 -132.114 -44.997 139.275
lowerback 18.7617 2.11005 14.4567
upperback 2.16896 5.40543 12.5532
thorax -8.03083 1.78892 4.51459
lowerneck 3.25597 -15.9256 -28.1842
upperneck 4.37051 -28.4803 36.3117
head 11.267 -13.9438 13.5724
rclavicle -5.40694e-014 -9.22361e-014
rhumerus 2.37161 -27.1739 -20.7093
rradius 52.2117
rwrist 14.3979
rhand -47.5481 -22.4191
rfingers 7.12502
rthumb -20.2341 -51.3852
lclavicle -5.40694e-014 -9.22361e-014
lhumerus -0.0522872 33.6178 -10.9444
lradius 45.257
lwrist 2.54248
lhand -45.9199 31.2524
lfingers 7.12502
lthumb -18.6686 60.3766
rfemur 195.968 45.5524 -164.967
rtibia 57.2512
rfoot 12.4544 -71.3321
rtoes -22.0518
lfemur -3.10036 5.93226 -17.9564
ltibia 29.1947
lfoot 13.4039 5.57334
ltoes -22.7149
285
root 9.86148 16.6112 12.4414 -130.73 -43.6604 138.387
lowerback 18.729 1.94432 15.3221
upperback 2.12363 5.32569 12.537
thorax -7.97546 1.71025 4.05919
lowerneck 2.69841 -16.0067 -28.0932
upperneck 4.20823 -28.3371 36.2615
head 11.234 -13.799 13.5066
rclavicle 9.54166e-014 1.01778e-013
rhumerus 2.8621 -27.4174 -20.7239
rradius 51.5622
rwrist 14.1355
rhand -47.3388 -22.5303
rfingers 7.12502
rthumb -20.0329 -51.5176
lclavicle 9.54166e-014 1.01778e-013
lhumerus 0.191807 34.1865 -11.1746
lradius 44.9961
lwrist 2.27592
lhand -45.7546 31.2077
lfingers 7.12502
lthumb -18.5096 60.3471
rfemur 195.875 45.058 -165.884
rtibia 57.6945
rfoot 12.0436 -70.7759
rtoes -21.2499
lfemur -3.58073 5.05675 -17.8815
ltibia 27.7713
lfoot 21.1105 3.35488
ltoes -17.4632
286
root 9.8037 16.654 12.1762 -129.48 -42.1063 137.487
lowerback 18.8354 1.87801 15.7465
upperback 2.13204 5.32385 12.539
thorax -7.98132 1.68705 3.83771
lowerneck 2.25515 -16.0877 -28.0048
upperneck 3.96361 -28.2018 36.2426
head 11.1625 -13.6715 13.4588
rclavicle -1.17681e-013 -1.24042e-013
rhumerus 3.30834 -27.7182 -20.4818
rradius 50.8093
rwrist 14.2989
rhand -46.4888 -22.4796
rfingers 7.12502
rthumb -19.2157 -51.5503
lclavicle -1.17681e-013 -1.24042e-013
lhumerus 0.494592 34.0848 -11.6976
lradius 44.6951
lwrist 2.60608
lhand -46.1234 31.9816
lfingers 7.12502
lthumb -18.8644 61.0869
rfemur 195.642 44.5054 -167.022
rtibia 58.1247
rfoot 12.1637 -70.2171
rtoes -20.2924
lfemur -3.8958 3.94344 -17.9364
ltibia 26.3015
lfoot 29.506 0.823499
ltoes -11.8976
